<svg width="60" height="60" viewBox="0 0 60 60" fill="none" xmlns="http://www.w3.org/2000/svg">
<circle cx="30" cy="32.2682" r="14.4715" fill="#3056D3"/>
<path opacity="0.1" fill-rule="evenodd" clip-rule="evenodd" d="M19.334 20.3969C17.6186 19.5769 15.6976 19.1178 13.6695 19.1178C6.4067 19.1178 0.519043 25.0054 0.519043 32.2682C0.519043 39.531 6.4067 45.4187 13.6695 45.4187C15.6976 45.4187 17.6186 44.9595 19.334 44.1395C15.8784 41.3399 13.6695 37.062 13.6695 32.2682C13.6695 27.4744 15.8784 23.1965 19.334 20.3969Z" fill="black"/>
<path opacity="0.1" fill-rule="evenodd" clip-rule="evenodd" d="M40.666 44.1395C44.1216 41.3399 46.3305 37.062 46.3305 32.2682C46.3305 27.4744 44.1216 23.1965 40.666 20.3969C42.3815 19.5769 44.3024 19.1178 46.3305 19.1178C53.5933 19.1178 59.481 25.0054 59.481 32.2682C59.481 39.531 53.5933 45.4187 46.3305 45.4187C44.3024 45.4187 42.3814 44.9595 40.666 44.1395Z" fill="black"/>
<path d="M28.2128 32.8702L22.1877 25.2185H25.7728L30 30.8048L34.2272 25.2185H37.8123L31.7979 32.8702L37.8123 40.522H34.2272L30 34.9357L25.7728 40.522H22.1877L28.2128 32.8702Z" fill="white"/>
</svg>
