<svg width="260" height="59" viewBox="0 0 260 59" fill="none" xmlns="http://www.w3.org/2000/svg">
<circle cx="202.674" cy="29.5364" r="27.7318" fill="#3056D3"/>
<path opacity="0.1" fill-rule="evenodd" clip-rule="evenodd" d="M182.235 52.2855C175.613 46.9205 171.38 38.7228 171.38 29.5364C171.38 20.35 175.613 12.1523 182.235 6.78736C178.947 5.216 175.266 4.33616 171.38 4.33616C157.462 4.33616 146.179 15.6187 146.179 29.5364C146.179 43.4541 157.462 54.7367 171.38 54.7367C175.266 54.7367 178.947 53.8568 182.235 52.2855Z" fill="black"/>
<path opacity="0.1" fill-rule="evenodd" clip-rule="evenodd" d="M223.113 52.2855C229.735 46.9205 233.968 38.7228 233.968 29.5364C233.968 20.35 229.735 12.1523 223.113 6.78736C226.401 5.216 230.082 4.33616 233.968 4.33616C247.886 4.33616 259.169 15.6187 259.169 29.5364C259.169 43.4541 247.886 54.7367 233.968 54.7367C230.082 54.7367 226.401 53.8568 223.113 52.2855Z" fill="black"/>
<path d="M3.25955 46.013V39.9192C6.89887 41.2734 11.0122 41.9505 15.5994 41.9505C21.1684 41.9505 23.9529 40.0885 23.9529 36.3645C23.9529 33.6562 22.2433 32.302 18.824 32.302H13.1365C5.70552 32.302 1.99002 28.9166 1.99002 22.1458C1.99002 14.6979 7.27973 10.9739 17.8592 10.9739C21.9217 10.9739 25.7726 11.5664 29.4119 12.7513V18.845C25.7726 17.4908 21.9217 16.8138 17.8592 16.8138C11.7654 16.8138 8.71854 18.5911 8.71854 22.1458C8.71854 24.8541 10.1912 26.2083 13.1365 26.2083H18.824C26.729 26.2083 30.6814 29.5937 30.6814 36.3645C30.6814 43.9817 25.6541 47.7903 15.5994 47.7903C11.0122 47.7903 6.89887 47.1979 3.25955 46.013ZM36.3943 47.5364V11.2278H52.6443C60.0584 11.2278 63.7654 14.6386 63.7654 21.4602C63.7654 28.8574 58.6957 33.3346 48.5564 34.8919L47.5916 28.8997C53.6853 27.7994 56.7322 25.3873 56.7322 21.6634C56.7322 18.6503 55.2257 17.1438 52.2127 17.1438H43.1228V47.5364H36.3943ZM74.9627 11.2278V41.6966H89.3846V47.5364H68.2342V11.2278H74.9627ZM102.486 11.2278V47.5364H95.7576V11.2278H102.486ZM133.869 11.2278V17.0677H123.459V47.5364H116.73V17.0677H106.32V11.2278H133.869Z" fill="#1938A0"/>
<path d="M199.233 28.1051L187.687 13.442H194.557L202.657 24.1471L210.758 13.442H217.628L206.103 28.1051L217.628 42.7682H210.758L202.657 32.0631L194.557 42.7682H187.687L199.233 28.1051Z" fill="white"/>
</svg>
