<svg width="200" height="45" viewBox="0 0 260 59" fill="none" xmlns="http://www.w3.org/2000/svg">
<circle cx="202.674" cy="29.3861" r="27.7318" fill="#3056D3"/>
<path opacity="0.1" fill-rule="evenodd" clip-rule="evenodd" d="M182.235 52.1352C175.613 46.7702 171.38 38.5725 171.38 29.3861C171.38 20.1997 175.613 12.002 182.235 6.63704C178.947 5.06568 175.266 4.18585 171.38 4.18585C157.462 4.18585 146.179 15.4684 146.179 29.3861C146.179 43.3038 157.462 54.5864 171.38 54.5864C175.266 54.5864 178.947 53.7065 182.235 52.1352Z" fill="white"/>
<path opacity="0.1" fill-rule="evenodd" clip-rule="evenodd" d="M223.113 52.1352C229.735 46.7702 233.968 38.5725 233.968 29.3861C233.968 20.1997 229.735 12.002 223.113 6.63705C226.401 5.06569 230.082 4.18585 233.968 4.18585C247.886 4.18585 259.169 15.4684 259.169 29.3861C259.169 43.3038 247.886 54.5864 233.968 54.5864C230.082 54.5864 226.401 53.7065 223.113 52.1352Z" fill="white"/>
<path d="M3.25955 45.8627V39.7689C6.89887 41.1231 11.0122 41.8002 15.5994 41.8002C21.1684 41.8002 23.9529 39.9382 23.9529 36.2142C23.9529 33.5059 22.2433 32.1517 18.824 32.1517H13.1365C5.70552 32.1517 1.99002 28.7663 1.99002 21.9955C1.99002 14.5476 7.27973 10.8236 17.8592 10.8236C21.9217 10.8236 25.7726 11.4161 29.4119 12.6009V18.6947C25.7726 17.3405 21.9217 16.6634 17.8592 16.6634C11.7654 16.6634 8.71854 18.4408 8.71854 21.9955C8.71854 24.7038 10.1912 26.058 13.1365 26.058H18.824C26.729 26.058 30.6814 29.4434 30.6814 36.2142C30.6814 43.8314 25.6541 47.64 15.5994 47.64C11.0122 47.64 6.89887 47.0476 3.25955 45.8627ZM36.3943 47.3861V11.0775H52.6443C60.0584 11.0775 63.7654 14.4883 63.7654 21.3099C63.7654 28.7071 58.6957 33.1843 48.5564 34.7416L47.5916 28.7494C53.6853 27.6491 56.7322 25.237 56.7322 21.5131C56.7322 18.5 55.2257 16.9935 52.2127 16.9935H43.1228V47.3861H36.3943ZM74.9627 11.0775V41.5463H89.3846V47.3861H68.2342V11.0775H74.9627ZM102.486 11.0775V47.3861H95.7576V11.0775H102.486ZM133.869 11.0775V16.9174H123.459V47.3861H116.73V16.9174H106.32V11.0775H133.869Z" fill="white"/>
<path d="M199.233 27.9548L187.687 13.2917H194.557L202.657 23.9968L210.758 13.2917H217.628L206.103 27.9548L217.628 42.6179H210.758L202.657 31.9128L194.557 42.6179H187.687L199.233 27.9548Z" fill="white"/>
</svg>
